<svg xmlns="http://www.w3.org/2000/svg" viewBox="0 0 200 200" width="200" height="200">
  <defs>
    <style>
      @keyframes pulse {
        0%, 100% { opacity: 1; transform: scale(1); }
        50% { opacity: 0.5; transform: scale(0.95); }
      }
      .cat-loading { animation: pulse 2s ease-in-out infinite; }
    </style>
  </defs>
  
  <g class="cat-loading" transform="translate(100, 100)">
    <path d="M -50 -70 L -60 -110 L -30 -85 Z" fill="none" stroke="#3B82F6" stroke-width="10" stroke-linecap="round" stroke-linejoin="round"/>
    <path d="M 50 -70 L 60 -110 L 30 -85 Z" fill="none" stroke="#3B82F6" stroke-width="10" stroke-linecap="round" stroke-linejoin="round"/>
    <path d="M -50 -70 Q -65 -45 -65 -10 Q -65 35 -45 60 Q -25 80 0 80 Q 25 80 45 60 Q 65 35 65 -10 Q 65 -45 50 -70" 
          fill="none" stroke="#3B82F6" stroke-width="10" stroke-linecap="round" stroke-linejoin="round"/>
    <path d="M -30 -20 Q -30 -35 -20 -35 Q -10 -35 -10 -20" fill="none" stroke="#3B82F6" stroke-width="8" stroke-linecap="round"/>
    <path d="M 10 -20 Q 10 -35 20 -35 Q 30 -35 30 -20" fill="none" stroke="#3B82F6" stroke-width="8" stroke-linecap="round"/>
    <path d="M -7 0 L 0 12 L 7 0 Q 4 -4 0 -4 Q -4 -4 -7 0 Z" fill="#3B82F6"/>
    <path d="M 0 12 Q -18 28 -25 22" fill="none" stroke="#3B82F6" stroke-width="7" stroke-linecap="round"/>
    <path d="M 0 12 Q 18 28 25 22" fill="none" stroke="#3B82F6" stroke-width="7" stroke-linecap="round"/>
  </g>
</svg>
